<svg width="30" height="30" viewBox="0 0 30 30" fill="none" xmlns="http://www.w3.org/2000/svg"><path fill-rule="evenodd" clip-rule="evenodd" d="M19.746 6.124c.473.006.946.013 1.422.018 5.108 0 8.832 3.641 8.832 8.67v6.46c0 5.029-3.724 8.67-8.832 8.67-2.046.043-4.092.058-6.153.058s-4.137-.015-6.183-.058C3.724 29.942 0 26.301 0 21.272v-6.46c0-5.029 3.724-8.67 8.847-8.67 1.928-.03 3.9-.058 5.903-.058v-.246c0-.997-.84-1.806-1.84-1.806h-1.458c-1.663 0-3.017-1.33-3.017-2.948A1.1 1.1 0 019.539 0c.618 0 1.104.491 1.104 1.084 0 .433.368.78.81.78h1.457c2.223.015 4.033 1.792 4.048 3.96v.274c.928 0 1.856.013 2.788.026zm-6.468 12.995h-1.546v1.531c0 .593-.5 1.084-1.104 1.084a1.092 1.092 0 01-1.104-1.084v-1.53h-1.56a1.093 1.093 0 01-1.104-1.084c0-.593.5-1.084 1.104-1.084h1.56v-1.518c0-.592.486-1.083 1.104-1.083.604 0 1.104.491 1.104 1.084v1.517h1.546c.603 0 1.104.491 1.104 1.084 0 .607-.5 1.084-1.104 1.084zm6.256-2.443h.147c.604 0 1.104-.477 1.104-1.083 0-.593-.5-1.084-1.104-1.084h-.147c-.618 0-1.104.491-1.104 1.083 0 .607.486 1.084 1.104 1.084zm2.517 4.971h.147c.604 0 1.104-.476 1.104-1.083 0-.593-.5-1.084-1.104-1.084h-.147c-.62 0-1.104.491-1.104 1.084 0 .607.484 1.083 1.104 1.083z" fill="#fff"/></svg>