<svg width="80" height="58" viewBox="0 0 80 58" fill="none" xmlns="http://www.w3.org/2000/svg"><g clip-path="url(#clip0)" fill="#fff"><path d="M15.568 22.047c.292.015.51.237.495.529-.06.54-.077 1.053-.195 1.51-2.04 8.612 1.938 18.327 9.41 23.476 7.963 5.494 18.794 5.39 26.677-.494 5.304-3.988 8.396-9.398 9.024-16.053.059-.541-.48-1.446-.983-1.72-5.668-2.88-11.66-4.97-17.872-6.44-4.163-.995-8.339-1.919-12.536-2.516-9.172-1.368-18.326-1.593-27.315 1.19-.233.07-.489.061-.709.059-.476-.011-.94-.093-1.258-.37-.29-.236-.336-.391-.292-.64.06-.542.404-1.032.763-1.19a52.141 52.141 0 015.315-2.183c1.84-.63 3.791-1.057 5.638-1.722.705-.243 1.454-.736 1.86-1.363 3.544-5.476 8.07-9.639 14.24-12.076 6.993-2.733 14.018-2.738 20.878.06 3.017 1.233 5.747 3.261 8.502 5.147 1.478.998 1.607 2.97.666 4.127-1.08 1.316-2.973 1.422-4.485.198-5.975-4.884-12.72-6.668-20.32-5.073-3.974.84-8.724 3.566-11.266 6.499-.27.283-.097.755.295.825 5.542.688 11.3 1.193 16.944 2.34 7.99 1.6 15.752 4.08 23.092 7.697.1.055.195.145.295.2 5.088 2.005 4.99 2.76 4.299 8.117-1.447 11.07-7.583 18.92-17.766 23.257-6.721 2.854-13.879 2.983-20.738.186C16.8 50.988 10.554 42.452 9.62 30.077a19.4 19.4 0 01-.04-2.877c.093-3.845 1.62-5.193 5.989-5.154zm51.111 30.757a.49.49 0 01.108-.606c.39-.336.78-.671 1.135-1.013 1.713-1.572 3.715-2.909 5.067-4.728 2.524-3.451 2.003-7.148-1.523-10.494-1.64-1.541-1.345-2.372-1.568-5.06-.035-.63-.414-1.397-.447-2.248-.008-.37.37-.634.707-.463.646.298 1.185.578 1.64.916 3.434 2.41 6.298 5.345 7.667 9.449 1.513 4.534-.244 9.261-4.483 11.6-2.036 1.11-4.27 1.89-6.44 2.72-.437.18-.913.169-1.402.23-.207-.075-.38-.142-.461-.303z"/></g><defs><clipPath id="clip0"><path fill="#fff" d="M0 0h80v57.652H0z"/></clipPath></defs></svg>