<svg width="33" height="32" viewBox="0 0 33 32" fill="none" xmlns="http://www.w3.org/2000/svg"><path fill="#000" fill-opacity="0" d="M.96 0h31.968v32H.96z"/><path fill-rule="evenodd" clip-rule="evenodd" d="M22.912 15a41.5 41.5 0 00-.681-5.386A35.192 35.192 0 0029.114 8l1.388-.488A15.882 15.882 0 0132.928 15H22.912zM19.808.27a16.023 16.023 0 019.517 5.6 62.798 62.798 0 01-7.508 1.694A67.87 67.87 0 0019.808.27zm-2.866 7.755a24.035 24.035 0 01-2.898-.211 49.556 49.556 0 012.44-7.791c.154 0 .3-.023.458-.023.16 0 .305.019.46.023a49.52 49.52 0 012.443 7.813c-.964.117-1.933.18-2.903.189zM4.745 5.642A16.02 16.02 0 0114.075.27a68.084 68.084 0 00-1.998 7.247 54.74 54.74 0 01-7.332-1.875zm6.907 3.972A41.518 41.518 0 0010.971 15H.96c.165-2.66.998-5.235 2.421-7.488L4.77 8a35.193 35.193 0 006.883 1.614zM10.971 17c.11 1.808.337 3.608.681 5.386A35.193 35.193 0 004.77 24l-1.387.488A15.868 15.868 0 01.961 17h10.01zm3.104 14.73a16.02 16.02 0 01-9.33-5.372 54.738 54.738 0 017.332-1.875 68.105 68.105 0 001.998 7.247zm2.867-7.755c.969.012 1.936.082 2.897.211a49.512 49.512 0 01-2.44 7.791c-.154 0-.3.023-.459.023-.158 0-.304-.019-.458-.023a49.523 49.523 0 01-2.44-7.791c.961-.129 1.93-.2 2.9-.211zm12.196 2.383a16.02 16.02 0 01-9.33 5.372 68.037 68.037 0 001.998-7.247 54.742 54.742 0 017.332 1.875zM16.94 10a39.5 39.5 0 003.328-.142A37.36 37.36 0 0120.911 15H12.97a37.36 37.36 0 01.643-5.142 39.52 39.52 0 003.328.142zm0 12a39.5 39.5 0 00-3.327.142A37.238 37.238 0 0112.971 17h7.941a37.238 37.238 0 01-.643 5.142A39.5 39.5 0 0016.942 22zm5.29.386A41.5 41.5 0 0022.912 17h10.016a15.878 15.878 0 01-2.421 7.488L29.114 24a35.192 35.192 0 00-6.883-1.614z" fill="#fff"/></svg>