<svg width="30" height="31" viewBox="0 0 30 31" fill="none" xmlns="http://www.w3.org/2000/svg"><path fill="#000" fill-opacity="0" d="M0 0h30v30.007H0z"/><path fill="#000" fill-opacity="0" d="M0 0h30v30.007H0z"/><path fill="#000" fill-opacity="0" d="M0 0h30v30.007H0z"/><path d="M29.312.692c-.778-.778-1.975-.903-3.552-.36-.693.236-1.478.602-2.36 1.1-.53.3-1.1.64-1.688 1.033-.157.104-.314.209-.478.32a13.19 13.19 0 012.525 1.668c.183-.111.353-.222.523-.32 1.492-.89 2.427-1.23 2.918-1.328-.131.66-.7 2.145-2.48 4.71-.143.202-.287.411-.438.62-.333-.45-.706-.889-1.118-1.295-4.507-4.506-11.82-4.506-16.326 0-4.507 4.507-4.507 11.82 0 16.326.412.413.843.785 1.295 1.119-.21.15-.419.294-.622.438-2.564 1.773-4.048 2.349-4.71 2.48.08-.4.321-1.113.904-2.185.202-.373.444-.792.739-1.256a13.835 13.835 0 01-1.668-2.525c-.111.157-.216.32-.32.478a24.72 24.72 0 00-1.355 2.289 13.31 13.31 0 00-.772 1.76c-.536 1.576-.418 2.773.36 3.551.779.778 1.976.903 3.552.36 1.112-.38 2.472-1.1 4.049-2.133 3.113-2.047 6.828-5.167 10.452-8.79 3.624-3.624 6.75-7.34 8.791-10.453 1.034-1.576 1.753-2.937 2.132-4.049.543-1.583.426-2.773-.353-3.558zm-22.52 15.41c-.608 0-1.099-.49-1.099-1.098 0-2.5.975-4.854 2.74-6.62a1.097 1.097 0 011.557 0 1.098 1.098 0 010 1.557 7.116 7.116 0 00-2.1 5.063 1.093 1.093 0 01-1.098 1.098zm13.494 4.186a86.123 86.123 0 01-6.822 6.155 11.54 11.54 0 009.7-3.277 11.507 11.507 0 003.277-9.7 86.086 86.086 0 01-6.155 6.822z" fill="#fff"/></svg>