<svg width="32" height="32" viewBox="0 0 32 32" fill="none" xmlns="http://www.w3.org/2000/svg"><path fill="#000" fill-opacity="0" d="M0 0h32v32H0z"/><path fill="#000" fill-opacity="0" d="M13.125 5.625h3.75v3.75h-3.75z"/><path fill="#000" fill-opacity="0" d="M13.125 5.625h3.75v3.75h-3.75z"/><path d="M15 5.625A1.877 1.877 0 0013.125 7.5c0 1.034.841 1.875 1.875 1.875A1.877 1.877 0 0016.875 7.5 1.877 1.877 0 0015 5.625z" fill="#fff"/><path fill="#000" fill-opacity="0" d="M13.125 20.625h3.75v3.75h-3.75z"/><path fill="#000" fill-opacity="0" d="M13.125 20.625h3.75v3.75h-3.75z"/><path d="M15 20.625a1.877 1.877 0 00-1.875 1.875c0 1.034.841 1.875 1.875 1.875a1.877 1.877 0 001.875-1.875A1.877 1.877 0 0015 20.625z" fill="#fff"/><path fill="#000" fill-opacity="0" d="M5.625 13.125h3.75v3.75h-3.75z"/><path fill="#000" fill-opacity="0" d="M5.625 13.125h3.75v3.75h-3.75z"/><path d="M7.5 13.125A1.877 1.877 0 005.625 15c0 1.034.841 1.875 1.875 1.875A1.877 1.877 0 009.375 15 1.877 1.877 0 007.5 13.125z" fill="#fff"/><path fill="#000" fill-opacity="0" d="M20.625 13.125h3.75v3.75h-3.75z"/><path fill="#000" fill-opacity="0" d="M20.625 13.125h3.75v3.75h-3.75z"/><path d="M22.5 13.125A1.877 1.877 0 0020.625 15c0 1.034.841 1.875 1.875 1.875A1.877 1.877 0 0024.375 15a1.877 1.877 0 00-1.875-1.875z" fill="#fff"/><path fill="#000" fill-opacity="0" d="M0 0h32v32H0z"/><path fill="#000" fill-opacity="0" d="M0 0h32v32H0z"/><path d="M30 28.25V14.062h-.047C29.465 6.23 22.954 0 15 0 6.73 0 0 6.73 0 15s6.73 15 15 15c5.644 0 10.565-3.136 13.125-7.754v6.004c0 2.068 1.807 3.75 3.875 3.75v-1.875c-1.034 0-2-.841-2-1.875zM15 3.75a3.754 3.754 0 013.75 3.75A3.754 3.754 0 0115 11.25a3.754 3.754 0 01-3.75-3.75A3.754 3.754 0 0115 3.75zM16.875 15A1.877 1.877 0 0115 16.875 1.877 1.877 0 0113.125 15c0-1.034.841-1.875 1.875-1.875s1.875.841 1.875 1.875zM7.5 18.75A3.754 3.754 0 013.75 15a3.754 3.754 0 013.75-3.75A3.754 3.754 0 0111.25 15a3.754 3.754 0 01-3.75 3.75zm7.5 7.5a3.754 3.754 0 01-3.75-3.75A3.754 3.754 0 0115 18.75a3.754 3.754 0 013.75 3.75A3.754 3.754 0 0115 26.25zm7.5-7.5A3.754 3.754 0 0118.75 15a3.754 3.754 0 013.75-3.75A3.754 3.754 0 0126.25 15a3.754 3.754 0 01-3.75 3.75z" fill="#fff"/></svg>