<svg width="36" height="36" viewBox="0 0 36 36" fill="none" xmlns="http://www.w3.org/2000/svg"><path d="M35.425 7.944c-1.288-2.232-4.461-3.092-8.934-2.423a.847.847 0 00.251 1.676c3.683-.55 6.312.03 7.215 1.594 1.72 2.98-2.846 9.871-12.388 15.38-4.362 2.518-8.855 4.181-12.652 4.683-3.49.46-5.991-.139-6.86-1.645-.903-1.563-.092-4.13 2.224-7.042a.847.847 0 00-1.326-1.055C.14 22.65-.7 25.826.589 28.057 1.59 29.79 3.744 30.7 6.76 30.7c.742 0 1.536-.056 2.378-.167 4.011-.53 8.727-2.268 13.277-4.895 9.768-5.64 15.481-13.411 13.009-17.694z" fill="#fff"/><path d="M18.007 2.755C9.601 2.755 2.762 9.595 2.762 18c0 4.964 2.386 9.38 6.07 12.166.408-.025.833-.066 1.274-.124 3.796-.501 8.29-2.164 12.652-4.683 4.784-2.762 8.317-5.872 10.435-8.662-.664-7.798-7.22-13.942-15.186-13.942z" fill="#fff"/><path d="M23.605 26.826c-4.25 2.454-8.643 4.132-12.473 4.774a15.142 15.142 0 006.875 1.645c7.965 0 14.518-6.14 15.185-13.935-2.35 2.607-5.637 5.236-9.587 7.516z" fill="#fff"/></svg>