<svg width="28" height="30" viewBox="0 0 28 30" fill="none" xmlns="http://www.w3.org/2000/svg"><path fill-rule="evenodd" clip-rule="evenodd" d="M7.715 0h12.572C24.92 0 27.5 2.67 27.5 7.245V22.74c0 4.65-2.58 7.26-7.213 7.26H7.715C3.155 30 .5 27.39.5 22.74V7.245C.5 2.67 3.155 0 7.715 0zm.405 6.99v-.015h4.484c.646 0 1.171.525 1.171 1.169 0 .661-.525 1.186-1.171 1.186H8.12a1.17 1.17 0 010-2.34zm0 9.12h11.76a1.172 1.172 0 000-2.341H8.12a1.172 1.172 0 000 2.341zm0 6.855h11.76a1.174 1.174 0 001.05-1.17c0-.615-.451-1.125-1.05-1.185H8.12a1.192 1.192 0 00-1.125 1.815c.24.375.675.6 1.125.54z" fill="#fff"/></svg>