<svg width="30" height="30" viewBox="0 0 30 30" fill="none" xmlns="http://www.w3.org/2000/svg"><path fill-rule="evenodd" clip-rule="evenodd" d="M0 15.009C0 6.729 6.733 0 15 0s15 6.73 15 15.009C30 23.27 23.267 30 15 30S0 23.27 0 15.009zm20.502 1.518c.16-.16.362-.405.405-.463.232-.304.348-.68.348-1.055 0-.421-.13-.812-.377-1.13a12.928 12.928 0 00-.478-.506c-1.187-1.275-4.285-3.359-5.907-3.995-.246-.1-.869-.319-1.202-.333-.318 0-.622.072-.912.217a1.877 1.877 0 00-.81.897c-.102.26-.261 1.042-.261 1.057-.16.854-.246 2.243-.246 3.777 0 1.463.087 2.793.217 3.661.004.004.016.066.035.162.06.294.182.905.312 1.155.319.608.942.984 1.608.984h.057c.435-.014 1.347-.39 1.347-.405 1.535-.637 4.56-2.62 5.777-3.936l.087-.087z" fill="#fff"/></svg>