<?xml version="1.0" encoding="utf-8"?><svg width="32" height="32" fill="none" xmlns="http://www.w3.org/2000/svg" viewBox="0 0 32 32"><path fill="none" d="M0 0h32v32H0z"/><path fill="none" d="M0 0h32v32H0z"/><path fill="none" d="M0 0h32v32H0z"/><path fill="none" d="M0 0h32v32H0z"/><path d="M13.09 10.182a.728.728 0 00-.726.727v2.182h1.454v-2.182a.728.728 0 00-.727-.727zM18.91 10.182h-.728v4.364h.727a.728.728 0 00.727-.728V10.91a.728.728 0 00-.727-.727z" fill="#fff"/><path d="M29.09 0H2.91A2.912 2.912 0 000 2.91v28.363a.727.727 0 001.241.514l7.06-7.06h20.79A2.912 2.912 0 0032 21.818V2.91A2.912 2.912 0 0029.09 0zM15.274 15.273a.727.727 0 11-1.455 0v-.728h-1.454v.728a.727.727 0 11-1.455 0v-4.364c0-1.203.979-2.182 2.182-2.182 1.203 0 2.182.979 2.182 2.182v4.364zm5.818-1.455A2.184 2.184 0 0118.909 16h-1.454a.727.727 0 01-.728-.727V9.455c0-.402.325-.728.727-.728h1.455c1.203 0 2.182.979 2.182 2.182v2.91z" fill="#fff"/></svg>