<?xml version="1.0" encoding="utf-8"?><svg width="32" height="20" fill="none" xmlns="http://www.w3.org/2000/svg" viewBox="0 0 32 20"><path fill="none" d="M0 .38h32v18.715H0z"/><path fill-rule="evenodd" clip-rule="evenodd" d="M26 19.095H6a5.886 5.886 0 01-4.243-1.827A6.366 6.366 0 010 12.857V6.619c0-1.655.632-3.241 1.757-4.411A5.886 5.886 0 016 .38h20c1.591 0 3.117.657 4.243 1.827A6.366 6.366 0 0132 6.618v6.239a6.366 6.366 0 01-1.757 4.41A5.886 5.886 0 0126 19.096zm.5-7.278c-.297 0-.587-.091-.833-.263a1.547 1.547 0 01-.553-.7 1.616 1.616 0 01-.085-.9c.058-.303.2-.581.41-.8.21-.217.477-.366.768-.426.291-.06.593-.03.867.089.274.118.508.318.673.574a1.604 1.604 0 01-.186 1.97 1.471 1.471 0 01-1.061.456zm-3-4.159a1.46 1.46 0 01-.833-.262 1.548 1.548 0 01-.553-.7 1.616 1.616 0 01-.085-.901c.058-.303.2-.58.41-.799.21-.218.477-.367.768-.427.291-.06.593-.029.867.089s.508.318.673.574a1.604 1.604 0 01-.186 1.97 1.472 1.472 0 01-1.061.456zm.5 5.719c0 .308-.088.61-.253.866s-.399.456-.673.574a1.447 1.447 0 01-.867.09 1.483 1.483 0 01-.768-.428 1.58 1.58 0 01-.41-.798 1.616 1.616 0 01.085-.901c.114-.285.306-.529.553-.7a1.459 1.459 0 011.894.194c.281.292.439.689.439 1.103zm-4.5-2.6c-.297 0-.587-.091-.833-.262a1.547 1.547 0 01-.553-.7 1.616 1.616 0 01-.085-.901c.058-.303.2-.58.41-.799.21-.218.477-.367.768-.427.291-.06.593-.029.867.089s.508.318.673.574a1.604 1.604 0 01-.186 1.97 1.472 1.472 0 01-1.061.456zm-6.5 0h-3v3.12c0 .275-.105.54-.293.735a.981.981 0 01-.707.304.981.981 0 01-.707-.304A1.06 1.06 0 018 13.896v-3.119H5a.981.981 0 01-.707-.304A1.06 1.06 0 014 9.738c0-.276.105-.54.293-.735A.981.981 0 015 8.698h3V5.579c0-.276.105-.54.293-.735A.981.981 0 019 4.539c.265 0 .52.11.707.305.188.195.293.46.293.735v3.119h3c.265 0 .52.11.707.305.188.195.293.459.293.735 0 .275-.105.54-.293.735a.981.981 0 01-.707.304z" fill="#fff"/></svg>