<?xml version="1.0" encoding="utf-8"?><svg width="30" height="30" fill="none" xmlns="http://www.w3.org/2000/svg" viewBox="0 0 30 30"><path d="M8.592 15.078c-.842.27-1.512 1.326-1.584 2.267a4.53 4.53 0 001.657 1.272c-.41-1.003-.43-2.195.142-3.051a2.007 2.007 0 01-.215-.488zM9.447 12.819a1.98 1.98 0 01.486-.216c-.27-.842-1.325-1.51-2.267-1.583a4.523 4.523 0 00-1.275 1.665 4.027 4.027 0 011.044-.286c.777-.096 1.473.055 2.012.42zM13.115 16.653c-.596 0-1.129-.157-1.562-.448-.15.094-.314.164-.487.215.27.842 1.325 1.511 2.267 1.584a4.527 4.527 0 001.276-1.666 4.04 4.04 0 01-1.044.287 3.652 3.652 0 01-.45.028zM10.951 12.568c.177.04.342.11.497.194.406-.79.125-2.012-.496-2.727a4.472 4.472 0 00-2.055.278c.996.419 1.854 1.245 2.054 2.255zM10.5 19.012c.566 0 1.104-.11 1.604-.3-.997-.42-1.854-1.247-2.055-2.256a1.973 1.973 0 01-.497-.194c-.407.79-.125 2.011.497 2.727.148.015.299.023.45.023zM12.409 13.945c.841-.27 1.51-1.325 1.583-2.267a4.521 4.521 0 00-1.656-1.271c.409 1.002.43 2.195-.143 3.05.094.151.164.315.216.488zM8.556 14.06c.04-.174.108-.337.191-.492-.323-.165-.736-.232-1.192-.177-.575.07-1.131.32-1.532.67a4.475 4.475 0 00.277 2.055c.42-.998 1.246-1.855 2.256-2.055zM20.556 14.06c.04-.174.108-.337.191-.492-.323-.165-.737-.232-1.192-.177-.575.07-1.132.32-1.532.67a4.43 4.43 0 00.277 2.054c.42-.997 1.247-1.854 2.256-2.054zM11.5 14.512a1 1 0 11-2 0 1 1 0 012 0zM12.444 14.963a1.98 1.98 0 01-.192.492c.324.166.737.233 1.192.177a2.92 2.92 0 001.532-.67 4.462 4.462 0 00-.277-2.055c-.419.998-1.245 1.855-2.255 2.056zM22.048 16.456a1.97 1.97 0 01-.496-.194c-.407.79-.125 2.011.496 2.727a4.476 4.476 0 002.055-.277c-.997-.42-1.853-1.247-2.055-2.256zM21.447 12.819c.15-.094.314-.164.486-.216-.27-.842-1.325-1.51-2.267-1.583a4.524 4.524 0 00-1.275 1.665 4.028 4.028 0 011.044-.286c.776-.096 1.473.055 2.012.42zM25.115 16.653c-.596 0-1.13-.157-1.561-.448-.15.094-.314.164-.488.215.27.842 1.325 1.511 2.267 1.584a4.523 4.523 0 001.275-1.666 4.034 4.034 0 01-1.043.287 3.652 3.652 0 01-.45.028zM20.592 15.078c-.842.27-1.511 1.326-1.584 2.267a4.53 4.53 0 001.657 1.272c-.41-1.003-.43-2.195.142-3.051a2.01 2.01 0 01-.215-.488z" fill="#fff"/><path d="M27 7.012H4v-2a.5.5 0 00-.5-.5h-3a.5.5 0 000 1H3v2.5H1.5a.5.5 0 000 1H3v1H1.5a.5.5 0 00-.5.5v4a.5.5 0 00.5.5H3v1H1.5a.5.5 0 000 1H3v1H1.5a.5.5 0 00-.5.5v4a.5.5 0 00.5.5H3v2a.5.5 0 001 0v-3h2.5v3a.5.5 0 00.5.5h11a.5.5 0 00.5-.5v-3h2v3a.5.5 0 00.5.5h4a.5.5 0 00.5-.5v-3H27c1.654 0 3-1.346 3-3v-9.001a3.003 3.003 0 00-3-3zm-25 7v-3h1v3H2zm0 8v-3h1v3H2zm4.154-4.141c-.018-.018-.03-.04-.045-.06A5.466 5.466 0 015 14.51c0-.239.022-.473.052-.716a5.496 5.496 0 012.089-3.628c.018-.019.04-.03.061-.046a5.464 5.464 0 013.298-1.11c.24 0 .475.021.718.053a5.495 5.495 0 013.628 2.089c.019.017.03.04.046.06a5.467 5.467 0 011.108 3.299c0 .24-.02.474-.051.717 0 .184-.063.39-.106.568a5.488 5.488 0 01-.661 1.588 5.547 5.547 0 01-3.993 2.583c-.229.03-.459.044-.689.044-.239 0-.474-.02-.717-.053a5.492 5.492 0 01-3.628-2.088zM17.5 24.51H16v-1a.5.5 0 00-1 0v1h-1v-1a.5.5 0 00-1 0v1h-1v-1a.5.5 0 00-1 0v1h-1v-1a.5.5 0 00-1 0v1H7.5v-2.5h10v2.5zm7 0h-1v-1a.5.5 0 00-1 0v1h-1v-2.5h3v2.5zm3.447-9.282c0 .324-.126.694-.228 1a5.47 5.47 0 01-1.682 2.485 5.516 5.516 0 01-3.537 1.298c-.24 0-.474-.02-.718-.052a5.492 5.492 0 01-3.628-2.089c-.018-.017-.03-.04-.045-.06a5.467 5.467 0 01-1.11-3.299c0-.24.022-.474.053-.716a5.496 5.496 0 012.088-3.629c.018-.018.04-.03.06-.045a5.467 5.467 0 013.3-1.11c.239 0 .474.02.718.053a5.496 5.496 0 013.627 2.088c.018.018.03.04.045.06.694.921 1.11 2.061 1.11 3.3 0 .238-.02.473-.053.716z" fill="#fff"/><path d="M22.95 12.568c.178.04.342.11.498.194.407-.79.125-2.012-.496-2.727a4.47 4.47 0 00-2.055.278c.997.419 1.853 1.245 2.054 2.255zM24.444 14.963a1.988 1.988 0 01-.192.492c.324.166.737.233 1.193.177a2.92 2.92 0 001.532-.67 4.466 4.466 0 00-.277-2.055c-.42.998-1.247 1.855-2.256 2.056zM23.5 14.512a1 1 0 11-2 0 1 1 0 012 0zM24.408 13.945c.842-.27 1.511-1.325 1.584-2.267a4.52 4.52 0 00-1.657-1.271c.41 1.002.43 2.195-.142 3.05.093.151.164.315.215.488z" fill="#fff"/></svg>