<?xml version="1.0" encoding="utf-8"?><svg width="30" height="30" fill="none" xmlns="http://www.w3.org/2000/svg" viewBox="0 0 30 30"><g clip-path="url(#mclip0)" fill="#fff"><path d="M26.367 10.256L30 13.889v-3.633h-3.633zM20.775 10.256h-4.739l6.012 6.012h-5.592l-6.012-6.012H5.409l6.012 6.012H5.828L.636 11.076a1.308 1.308 0 00-.097.492v16.326c0 .91.738 1.647 1.648 1.647h26.165c.91 0 1.648-.738 1.648-1.648V16.268h-3.213l-6.012-6.012zM25.044.459l-4.983.722-5.088 6.812 4.983-.722L25.044.459zM14.526 1.983l-4.69.68-5.088 6.811 4.69-.68 5.088-6.811zM29.656 4.54l-.443-3.056L25.49 6.47l3.056-.443a1.312 1.312 0 001.11-1.486zM4.302 3.464l-3.178.46a1.312 1.312 0 00-1.11 1.487l.404 2.788.056.39 1.315-1.76 2.513-3.365z"/></g><defs><clipPath id="mclip0"><path fill="#fff" d="M0 0h30v30H0z"/></clipPath></defs></svg>