<?xml version="1.0" encoding="utf-8"?><svg width="26" height="30" fill="none" xmlns="http://www.w3.org/2000/svg" viewBox="0 0 26 30"><path fill-rule="evenodd" clip-rule="evenodd" d="M8.389 21.585h8.079c.609 0 1.114-.51 1.114-1.125s-.505-1.11-1.114-1.11h-8.08c-.608 0-1.113.495-1.113 1.11 0 .615.505 1.125 1.114 1.125zm5.02-9.735h-5.02c-.61 0-1.114.51-1.114 1.125s.505 1.11 1.114 1.11h5.02c.608 0 1.113-.495 1.113-1.11 0-.615-.505-1.125-1.114-1.125zm10.598-1.312c.35-.004.73-.008 1.075-.008.371 0 .668.3.668.675v12.06c0 3.72-2.985 6.735-6.668 6.735H7.26C3.399 30 .25 26.835.25 22.935V6.765C.25 3.045 3.25 0 6.948 0h7.93c.387 0 .684.315.684.69v4.83c0 2.745 2.243 4.995 4.96 5.01.635 0 1.195.005 1.684.009.382.003.72.006 1.02.006.21 0 .485-.003.781-.007zm.41-2.189c-1.221.005-2.66 0-3.695-.01-1.643 0-2.996-1.367-2.996-3.026V1.359c0-.646.777-.967 1.22-.501a24956.693 24956.693 0 015.98 6.28c.434.455.116 1.21-.51 1.211z" fill="#fff"/></svg>