<?xml version="1.0" encoding="utf-8"?><svg width="20" height="20" fill="none" xmlns="http://www.w3.org/2000/svg" viewBox="0 0 20 20"><path d="M19.993.94a.958.958 0 00-.052-.265c-.011-.031-.021-.062-.035-.093a.985.985 0 00-.195-.294.979.979 0 00-.294-.195c-.031-.014-.062-.024-.093-.035a.99.99 0 00-.263-.052C19.034.005 19.009 0 18.98 0a.99.99 0 00-.308.052L.67 6.353A1 1 0 00.594 8.21l7.75 3.446 3.444 7.75c.16.363.52.594.914.594.014 0 .027 0 .04-.002a.997.997 0 00.904-.668l6.302-18.003c.035-.101.05-.206.052-.309 0-.027-.006-.051-.007-.078zm-4.796 2.448L8.88 9.706 3.71 7.408l11.487-4.02zm-2.605 12.9l-2.298-5.169 6.317-6.316-4.02 11.485z" fill="#fff"/></svg>