<?xml version="1.0" encoding="utf-8"?><svg width="30" height="30" fill="none" xmlns="http://www.w3.org/2000/svg" viewBox="0 0 30 30"><path d="M27.823 7.298H18.55l3.293-5.403A.993.993 0 0020.146.86l-3.924 6.437h-2.444L9.854.861a.994.994 0 00-1.696 1.034l3.293 5.403H2.176C.976 7.298 0 8.275 0 9.475V27.44c0 1.2.976 2.176 2.176 2.176h25.647c1.2 0 2.177-.976 2.177-2.176V9.475c0-1.2-.976-2.177-2.177-2.177zm-6.785 17.53c0 .654-.53 1.184-1.183 1.184H4.715c-.654 0-1.184-.53-1.184-1.183V12.086c0-.654.53-1.183 1.183-1.183h15.141c.653 0 1.183.53 1.183 1.183v12.743zm4.379-.377a2.055 2.055 0 01-2.053-2.053c0-1.133.92-2.053 2.053-2.053 1.132 0 2.053.92 2.053 2.053a2.055 2.055 0 01-2.053 2.053zm0-7.881a2.055 2.055 0 01-2.053-2.053c0-1.132.92-2.053 2.053-2.053 1.132 0 2.053.92 2.053 2.053a2.055 2.055 0 01-2.053 2.053z" fill="#fff"/></svg>