<?xml version="1.0" encoding="utf-8"?><svg viewBox="0 0 80 58" xmlns="http://www.w3.org/2000/svg" xmlns:xlink="http://www.w3.org/1999/xlink"><style>:root>svg{display:none}:root>svg:target{display:block}</style><svg viewBox="0 0 6 4" id="dropdown-arrow" xmlns="http://www.w3.org/2000/svg"><g clip-path="url(#aclip0)"><path d="M5.236.013L2.992 2.396.748.013 0 .807l2.992 3.18L5.984.807 5.236.013z" fill="#ADAFCA"/></g><defs><clipPath id="aclip0"><path fill="#fff" d="M0 0h6v4H0z"/></clipPath></defs></svg><svg fill="none" viewBox="0 0 30 30" id="games" xmlns="http://www.w3.org/2000/svg"><path fill-rule="evenodd" clip-rule="evenodd" d="M19.746 6.124c.473.006.946.013 1.422.018 5.108 0 8.832 3.641 8.832 8.67v6.46c0 5.029-3.724 8.67-8.832 8.67-2.046.043-4.092.058-6.153.058s-4.137-.015-6.183-.058C3.724 29.942 0 26.301 0 21.272v-6.46c0-5.029 3.724-8.67 8.847-8.67 1.928-.03 3.9-.058 5.903-.058v-.246c0-.997-.84-1.806-1.84-1.806h-1.458c-1.663 0-3.017-1.33-3.017-2.948C8.435.49 8.935 0 9.539 0c.618 0 1.104.491 1.104 1.084 0 .433.368.78.81.78h1.457c2.223.015 4.033 1.792 4.048 3.96v.274c.928 0 1.856.013 2.788.026zm-6.468 12.995h-1.546v1.531c0 .593-.5 1.084-1.104 1.084a1.092 1.092 0 01-1.104-1.084V19.12h-1.56a1.093 1.093 0 01-1.104-1.084c0-.593.5-1.084 1.104-1.084h1.56v-1.518c0-.592.486-1.083 1.104-1.083.604 0 1.104.491 1.104 1.084v1.517h1.546c.603 0 1.104.491 1.104 1.084 0 .607-.5 1.084-1.104 1.084zm6.256-2.443h.147c.604 0 1.104-.477 1.104-1.083 0-.593-.5-1.084-1.104-1.084h-.147c-.618 0-1.104.491-1.104 1.083 0 .607.486 1.084 1.104 1.084zm2.517 4.971h.147c.604 0 1.104-.476 1.104-1.083 0-.593-.5-1.084-1.104-1.084h-.147c-.62 0-1.104.491-1.104 1.084 0 .607.484 1.083 1.104 1.083z" fill="#fff"/></svg><svg fill="none" viewBox="0 0 80 58" id="geek's-planet-logo" xmlns="http://www.w3.org/2000/svg"><g clip-path="url(#cclip0)" fill="#fff"><path d="M15.568 22.047c.292.015.51.237.495.529-.06.54-.077 1.053-.195 1.51-2.04 8.612 1.938 18.327 9.41 23.476 7.963 5.494 18.794 5.39 26.677-.494 5.304-3.988 8.396-9.398 9.024-16.053.059-.541-.48-1.446-.983-1.72-5.668-2.88-11.66-4.97-17.872-6.44-4.163-.995-8.339-1.919-12.536-2.516-9.172-1.368-18.326-1.593-27.315 1.19-.233.07-.489.061-.709.059-.476-.011-.94-.093-1.258-.37-.29-.236-.336-.391-.292-.64.06-.542.404-1.032.763-1.19a52.141 52.141 0 015.315-2.183c1.84-.63 3.791-1.057 5.638-1.722.705-.243 1.454-.736 1.86-1.363 3.544-5.476 8.07-9.639 14.24-12.076 6.993-2.733 14.018-2.738 20.878.06 3.017 1.233 5.747 3.261 8.502 5.147 1.478.998 1.607 2.97.666 4.127-1.08 1.316-2.973 1.422-4.485.198-5.975-4.884-12.72-6.668-20.32-5.073-3.974.84-8.724 3.566-11.266 6.499-.27.283-.097.755.295.825 5.542.688 11.3 1.193 16.944 2.34 7.99 1.6 15.752 4.08 23.092 7.697.1.055.195.145.295.2 5.088 2.005 4.99 2.76 4.299 8.117-1.447 11.07-7.583 18.92-17.766 23.257-6.721 2.854-13.879 2.983-20.738.186C16.8 50.988 10.554 42.452 9.62 30.077A19.4 19.4 0 019.58 27.2c.093-3.845 1.62-5.193 5.989-5.154zM66.679 52.804a.49.49 0 01.108-.606c.39-.336.78-.671 1.135-1.013 1.713-1.572 3.715-2.909 5.067-4.728 2.524-3.451 2.003-7.148-1.523-10.494-1.64-1.541-1.345-2.372-1.568-5.06-.035-.63-.414-1.397-.447-2.248-.008-.37.37-.634.707-.463.646.298 1.185.578 1.64.916 3.434 2.41 6.298 5.345 7.667 9.449 1.513 4.534-.244 9.261-4.483 11.6-2.036 1.11-4.27 1.89-6.44 2.72-.437.18-.913.169-1.402.23-.207-.075-.38-.142-.461-.303z"/></g><defs><clipPath id="cclip0"><path fill="#fff" d="M0 0h80v57.652H0z"/></clipPath></defs></svg><svg fill="none" viewBox="0 0 32 32" id="ic-ad" xmlns="http://www.w3.org/2000/svg"><path fill="none" d="M0 0h32v32H0z"/><path fill="none" d="M0 0h32v32H0z"/><path fill="none" d="M0 0h32v32H0z"/><path fill="none" d="M0 0h32v32H0z"/><path d="M13.09 10.182a.728.728 0 00-.726.727v2.182h1.454v-2.182a.728.728 0 00-.727-.727zM18.91 10.182h-.728v4.364h.727a.728.728 0 00.727-.728V10.91a.728.728 0 00-.727-.727z" fill="#fff"/><path d="M29.09 0H2.91A2.912 2.912 0 000 2.91v28.363a.727.727 0 001.241.514l7.06-7.06h20.79A2.912 2.912 0 0032 21.818V2.91A2.912 2.912 0 0029.09 0zM15.274 15.273a.727.727 0 11-1.455 0v-.728h-1.454v.728a.727.727 0 11-1.455 0v-4.364c0-1.203.979-2.182 2.182-2.182 1.203 0 2.182.979 2.182 2.182v4.364zm5.818-1.455A2.184 2.184 0 0118.909 16h-1.454a.727.727 0 01-.728-.727V9.455c0-.402.325-.728.727-.728h1.455c1.203 0 2.182.979 2.182 2.182v2.91z" fill="#fff"/></svg><svg fill="none" viewBox="0 0 32 20" id="ic-gamepad" xmlns="http://www.w3.org/2000/svg"><path fill="none" d="M0 .38h32v18.715H0z"/><path fill-rule="evenodd" clip-rule="evenodd" d="M26 19.095H6a5.886 5.886 0 01-4.243-1.827A6.366 6.366 0 010 12.857V6.619c0-1.655.632-3.241 1.757-4.411A5.886 5.886 0 016 .38h20c1.591 0 3.117.657 4.243 1.827A6.366 6.366 0 0132 6.618v6.239a6.366 6.366 0 01-1.757 4.41A5.886 5.886 0 0126 19.096zm.5-7.278c-.297 0-.587-.091-.833-.263a1.547 1.547 0 01-.553-.7 1.616 1.616 0 01-.085-.9c.058-.303.2-.581.41-.8.21-.217.477-.366.768-.426.291-.06.593-.03.867.089.274.118.508.318.673.574a1.604 1.604 0 01-.186 1.97 1.471 1.471 0 01-1.061.456zm-3-4.159a1.46 1.46 0 01-.833-.262 1.548 1.548 0 01-.553-.7 1.616 1.616 0 01-.085-.901c.058-.303.2-.58.41-.799.21-.218.477-.367.768-.427.291-.06.593-.029.867.089s.508.318.673.574a1.604 1.604 0 01-.186 1.97 1.472 1.472 0 01-1.061.456zm.5 5.719c0 .308-.088.61-.253.866s-.399.456-.673.574a1.447 1.447 0 01-.867.09 1.483 1.483 0 01-.768-.428 1.58 1.58 0 01-.41-.798 1.616 1.616 0 01.085-.901c.114-.285.306-.529.553-.7a1.459 1.459 0 011.894.194c.281.292.439.689.439 1.103zm-4.5-2.6c-.297 0-.587-.091-.833-.262a1.547 1.547 0 01-.553-.7 1.616 1.616 0 01-.085-.901c.058-.303.2-.58.41-.799.21-.218.477-.367.768-.427.291-.06.593-.029.867.089s.508.318.673.574a1.604 1.604 0 01-.186 1.97 1.472 1.472 0 01-1.061.456zm-6.5 0h-3v3.12c0 .275-.105.54-.293.735a.981.981 0 01-.707.304.981.981 0 01-.707-.304A1.06 1.06 0 018 13.896v-3.119H5a.981.981 0 01-.707-.304A1.06 1.06 0 014 9.738c0-.276.105-.54.293-.735A.981.981 0 015 8.698h3V5.579c0-.276.105-.54.293-.735A.981.981 0 019 4.539c.265 0 .52.11.707.305.188.195.293.46.293.735v3.119h3c.265 0 .52.11.707.305.188.195.293.459.293.735 0 .275-.105.54-.293.735a.981.981 0 01-.707.304z" fill="#fff"/></svg><svg fill="none" viewBox="0 0 30 30" id="ic-gpu" xmlns="http://www.w3.org/2000/svg"><path d="M8.592 15.078c-.842.27-1.512 1.326-1.584 2.267a4.53 4.53 0 001.657 1.272c-.41-1.003-.43-2.195.142-3.051a2.007 2.007 0 01-.215-.488zM9.447 12.819a1.98 1.98 0 01.486-.216c-.27-.842-1.325-1.51-2.267-1.583a4.523 4.523 0 00-1.275 1.665 4.027 4.027 0 011.044-.286c.777-.096 1.473.055 2.012.42zM13.115 16.653c-.596 0-1.129-.157-1.562-.448-.15.094-.314.164-.487.215.27.842 1.325 1.511 2.267 1.584a4.527 4.527 0 001.276-1.666 4.04 4.04 0 01-1.044.287 3.652 3.652 0 01-.45.028zM10.951 12.568c.177.04.342.11.497.194.406-.79.125-2.012-.496-2.727a4.472 4.472 0 00-2.055.278c.996.419 1.854 1.245 2.054 2.255zM10.5 19.012c.566 0 1.104-.11 1.604-.3-.997-.42-1.854-1.247-2.055-2.256a1.973 1.973 0 01-.497-.194c-.407.79-.125 2.011.497 2.727.148.015.299.023.45.023zM12.409 13.945c.841-.27 1.51-1.325 1.583-2.267a4.521 4.521 0 00-1.656-1.271c.409 1.002.43 2.195-.143 3.05.094.151.164.315.216.488zM8.556 14.06c.04-.174.108-.337.191-.492-.323-.165-.736-.232-1.192-.177-.575.07-1.131.32-1.532.67a4.475 4.475 0 00.277 2.055c.42-.998 1.246-1.855 2.256-2.055zM20.556 14.06c.04-.174.108-.337.191-.492-.323-.165-.737-.232-1.192-.177-.575.07-1.132.32-1.532.67a4.43 4.43 0 00.277 2.054c.42-.997 1.247-1.854 2.256-2.054zM11.5 14.512a1 1 0 11-2 0 1 1 0 012 0zM12.444 14.963a1.98 1.98 0 01-.192.492c.324.166.737.233 1.192.177a2.92 2.92 0 001.532-.67 4.462 4.462 0 00-.277-2.055c-.419.998-1.245 1.855-2.255 2.056zM22.048 16.456a1.97 1.97 0 01-.496-.194c-.407.79-.125 2.011.496 2.727a4.476 4.476 0 002.055-.277c-.997-.42-1.853-1.247-2.055-2.256zM21.447 12.819c.15-.094.314-.164.486-.216-.27-.842-1.325-1.51-2.267-1.583a4.524 4.524 0 00-1.275 1.665 4.028 4.028 0 011.044-.286c.776-.096 1.473.055 2.012.42zM25.115 16.653c-.596 0-1.13-.157-1.561-.448-.15.094-.314.164-.488.215.27.842 1.325 1.511 2.267 1.584a4.523 4.523 0 001.275-1.666 4.034 4.034 0 01-1.043.287 3.652 3.652 0 01-.45.028zM20.592 15.078c-.842.27-1.511 1.326-1.584 2.267a4.53 4.53 0 001.657 1.272c-.41-1.003-.43-2.195.142-3.051a2.01 2.01 0 01-.215-.488z" fill="#fff"/><path d="M27 7.012H4v-2a.5.5 0 00-.5-.5h-3a.5.5 0 000 1H3v2.5H1.5a.5.5 0 000 1H3v1H1.5a.5.5 0 00-.5.5v4a.5.5 0 00.5.5H3v1H1.5a.5.5 0 000 1H3v1H1.5a.5.5 0 00-.5.5v4a.5.5 0 00.5.5H3v2a.5.5 0 001 0v-3h2.5v3a.5.5 0 00.5.5h11a.5.5 0 00.5-.5v-3h2v3a.5.5 0 00.5.5h4a.5.5 0 00.5-.5v-3H27c1.654 0 3-1.346 3-3v-9.001a3.003 3.003 0 00-3-3zm-25 7v-3h1v3H2zm0 8v-3h1v3H2zm4.154-4.141c-.018-.018-.03-.04-.045-.06A5.466 5.466 0 015 14.51c0-.239.022-.473.052-.716a5.496 5.496 0 012.089-3.628c.018-.019.04-.03.061-.046a5.464 5.464 0 013.298-1.11c.24 0 .475.021.718.053a5.495 5.495 0 013.628 2.089c.019.017.03.04.046.06a5.467 5.467 0 011.108 3.299c0 .24-.02.474-.051.717 0 .184-.063.39-.106.568a5.488 5.488 0 01-.661 1.588 5.547 5.547 0 01-3.993 2.583c-.229.03-.459.044-.689.044-.239 0-.474-.02-.717-.053a5.492 5.492 0 01-3.628-2.088zM17.5 24.51H16v-1a.5.5 0 00-1 0v1h-1v-1a.5.5 0 00-1 0v1h-1v-1a.5.5 0 00-1 0v1h-1v-1a.5.5 0 00-1 0v1H7.5v-2.5h10v2.5zm7 0h-1v-1a.5.5 0 00-1 0v1h-1v-2.5h3v2.5zm3.447-9.282c0 .324-.126.694-.228 1a5.47 5.47 0 01-1.682 2.485 5.516 5.516 0 01-3.537 1.298c-.24 0-.474-.02-.718-.052a5.492 5.492 0 01-3.628-2.089c-.018-.017-.03-.04-.045-.06a5.467 5.467 0 01-1.11-3.299c0-.24.022-.474.053-.716a5.496 5.496 0 012.088-3.629c.018-.018.04-.03.06-.045a5.467 5.467 0 013.3-1.11c.239 0 .474.02.718.053a5.496 5.496 0 013.627 2.088c.018.018.03.04.045.06.694.921 1.11 2.061 1.11 3.3 0 .238-.02.473-.053.716z" fill="#fff"/><path d="M22.95 12.568c.178.04.342.11.498.194.407-.79.125-2.012-.496-2.727a4.47 4.47 0 00-2.055.278c.997.419 1.853 1.245 2.054 2.255zM24.444 14.963a1.988 1.988 0 01-.192.492c.324.166.737.233 1.193.177a2.92 2.92 0 001.532-.67 4.466 4.466 0 00-.277-2.055c-.42.998-1.247 1.855-2.256 2.056zM23.5 14.512a1 1 0 11-2 0 1 1 0 012 0zM24.408 13.945c.842-.27 1.511-1.325 1.584-2.267a4.52 4.52 0 00-1.657-1.271c.41 1.002.43 2.195-.142 3.05.093.151.164.315.215.488z" fill="#fff"/></svg><svg fill="none" viewBox="0 0 33 32" id="ic-news" xmlns="http://www.w3.org/2000/svg"><path fill="none" d="M.96 0h31.968v32H.96z"/><path fill-rule="evenodd" clip-rule="evenodd" d="M22.912 15a41.5 41.5 0 00-.681-5.386A35.192 35.192 0 0029.114 8l1.388-.488A15.882 15.882 0 0132.928 15H22.912zM19.808.27a16.023 16.023 0 019.517 5.6 62.798 62.798 0 01-7.508 1.694A67.87 67.87 0 0019.808.27zm-2.866 7.755a24.035 24.035 0 01-2.898-.211 49.556 49.556 0 012.44-7.791c.154 0 .3-.023.458-.023.16 0 .305.019.46.023a49.52 49.52 0 012.443 7.813c-.964.117-1.933.18-2.903.189zM4.745 5.642A16.02 16.02 0 0114.075.27a68.084 68.084 0 00-1.998 7.247 54.74 54.74 0 01-7.332-1.875zm6.907 3.972A41.518 41.518 0 0010.971 15H.96c.165-2.66.998-5.235 2.421-7.488L4.77 8a35.193 35.193 0 006.883 1.614zM10.971 17c.11 1.808.337 3.608.681 5.386A35.193 35.193 0 004.77 24l-1.387.488A15.868 15.868 0 01.961 17h10.01zm3.104 14.73a16.02 16.02 0 01-9.33-5.372 54.738 54.738 0 017.332-1.875c.532 2.45 1.199 4.87 1.998 7.247zm2.867-7.755c.969.012 1.936.082 2.897.211a49.512 49.512 0 01-2.44 7.791c-.154 0-.3.023-.459.023-.158 0-.304-.019-.458-.023a49.523 49.523 0 01-2.44-7.791c.961-.129 1.93-.2 2.9-.211zm12.196 2.383a16.02 16.02 0 01-9.33 5.372 68.037 68.037 0 001.998-7.247 54.742 54.742 0 017.332 1.875zM16.94 10a39.5 39.5 0 003.328-.142c.333 1.697.548 3.415.643 5.142h-7.941c.095-1.727.31-3.445.643-5.142 1.09.092 2.198.142 3.328.142zm0 12a39.5 39.5 0 00-3.327.142A37.238 37.238 0 0112.971 17h7.941a37.238 37.238 0 01-.643 5.142A39.5 39.5 0 0016.942 22zm5.29.386A41.5 41.5 0 0022.912 17h10.016a15.878 15.878 0 01-2.421 7.488L29.114 24a35.192 35.192 0 00-6.883-1.614z" fill="#fff"/></svg><svg fill="none" viewBox="0 0 30 31" id="ic-planet" xmlns="http://www.w3.org/2000/svg"><path fill="none" d="M0 0h30v30.007H0z"/><path fill="none" d="M0 0h30v30.007H0z"/><path fill="none" d="M0 0h30v30.007H0z"/><path d="M29.312.692c-.778-.778-1.975-.903-3.552-.36-.693.236-1.478.602-2.36 1.1-.53.3-1.1.64-1.688 1.033-.157.104-.314.209-.478.32a13.19 13.19 0 012.525 1.668c.183-.111.353-.222.523-.32 1.492-.89 2.427-1.23 2.918-1.328-.131.66-.7 2.145-2.48 4.71-.143.202-.287.411-.438.62-.333-.45-.706-.889-1.118-1.295-4.507-4.506-11.82-4.506-16.326 0-4.507 4.507-4.507 11.82 0 16.326.412.413.843.785 1.295 1.119-.21.15-.419.294-.622.438-2.564 1.773-4.048 2.349-4.71 2.48.08-.4.321-1.113.904-2.185.202-.373.444-.792.739-1.256a13.835 13.835 0 01-1.668-2.525c-.111.157-.216.32-.32.478-.544.824-.995 1.589-1.355 2.289-.333.64-.588 1.23-.772 1.76-.536 1.576-.418 2.773.36 3.551.779.778 1.976.903 3.552.36 1.112-.38 2.472-1.1 4.049-2.133 3.113-2.047 6.828-5.167 10.452-8.79 3.624-3.624 6.75-7.34 8.791-10.453 1.034-1.576 1.753-2.937 2.132-4.049.543-1.583.426-2.773-.353-3.558zm-22.52 15.41c-.608 0-1.099-.49-1.099-1.098 0-2.5.975-4.854 2.74-6.62a1.097 1.097 0 011.557 0 1.098 1.098 0 010 1.557 7.116 7.116 0 00-2.1 5.063 1.093 1.093 0 01-1.098 1.098zM20.286 20.288a86.123 86.123 0 01-6.822 6.155 11.54 11.54 0 009.7-3.277 11.507 11.507 0 003.277-9.7 86.086 86.086 0 01-6.155 6.822z" fill="#fff"/></svg><svg fill="none" viewBox="0 0 26 32" id="ic-post" xmlns="http://www.w3.org/2000/svg"><path fill="none" d="M0 0h26v32H0z"/><path fill-rule="evenodd" clip-rule="evenodd" d="M18 .029L26 8v20a4 4 0 01-4 4H4a4 4 0 01-4-4V4a4 4 0 014-4l14 .029zM18 2v4a2 2 0 002 2h4l-6-6zm1 22H7a1 1 0 010-2h12a1 1 0 010 2zm0-6H7a1 1 0 010-2h12a1 1 0 010 2z" fill="#fff"/></svg><svg fill="none" viewBox="0 0 19 19" id="ic-search" xmlns="http://www.w3.org/2000/svg"><path d="M12.857 8.143c0 2.757-2.243 5-5 5s-5-2.243-5-5 2.243-5 5-5 5 2.243 5 5zm5.714 9.286c0-.38-.156-.748-.413-1.005l-3.828-3.828a7.84 7.84 0 001.384-4.453A7.854 7.854 0 007.857.286 7.854 7.854 0 000 8.143 7.854 7.854 0 007.857 16a7.84 7.84 0 004.453-1.384l3.828 3.817a1.4 1.4 0 001.005.424c.781 0 1.428-.647 1.428-1.428z" fill="#9FA0AB"/></svg><svg fill="none" viewBox="0 0 32 32" id="ic-video" xmlns="http://www.w3.org/2000/svg"><path fill="none" d="M0 0h32v32H0z"/><path fill="none" d="M13.125 5.625h3.75v3.75h-3.75z"/><path fill="none" d="M13.125 5.625h3.75v3.75h-3.75z"/><path d="M15 5.625A1.877 1.877 0 0013.125 7.5c0 1.034.841 1.875 1.875 1.875A1.877 1.877 0 0016.875 7.5 1.877 1.877 0 0015 5.625z" fill="#fff"/><path fill="none" d="M13.125 20.625h3.75v3.75h-3.75z"/><path fill="none" d="M13.125 20.625h3.75v3.75h-3.75z"/><path d="M15 20.625a1.877 1.877 0 00-1.875 1.875c0 1.034.841 1.875 1.875 1.875a1.877 1.877 0 001.875-1.875A1.877 1.877 0 0015 20.625z" fill="#fff"/><path fill="none" d="M5.625 13.125h3.75v3.75h-3.75z"/><path fill="none" d="M5.625 13.125h3.75v3.75h-3.75z"/><path d="M7.5 13.125A1.877 1.877 0 005.625 15c0 1.034.841 1.875 1.875 1.875A1.877 1.877 0 009.375 15 1.877 1.877 0 007.5 13.125z" fill="#fff"/><path fill="none" d="M20.625 13.125h3.75v3.75h-3.75z"/><path fill="none" d="M20.625 13.125h3.75v3.75h-3.75z"/><path d="M22.5 13.125A1.877 1.877 0 0020.625 15c0 1.034.841 1.875 1.875 1.875A1.877 1.877 0 0024.375 15a1.877 1.877 0 00-1.875-1.875z" fill="#fff"/><path fill="none" d="M0 0h32v32H0z"/><path fill="none" d="M0 0h32v32H0z"/><path d="M30 28.25V14.062h-.047C29.465 6.23 22.954 0 15 0 6.73 0 0 6.73 0 15s6.73 15 15 15c5.644 0 10.565-3.136 13.125-7.754v6.004c0 2.068 1.807 3.75 3.875 3.75v-1.875c-1.034 0-2-.841-2-1.875zM15 3.75a3.754 3.754 0 013.75 3.75A3.754 3.754 0 0115 11.25a3.754 3.754 0 01-3.75-3.75A3.754 3.754 0 0115 3.75zM16.875 15A1.877 1.877 0 0115 16.875 1.877 1.877 0 0113.125 15c0-1.034.841-1.875 1.875-1.875s1.875.841 1.875 1.875zM7.5 18.75A3.754 3.754 0 013.75 15a3.754 3.754 0 013.75-3.75A3.754 3.754 0 0111.25 15a3.754 3.754 0 01-3.75 3.75zm7.5 7.5a3.754 3.754 0 01-3.75-3.75A3.754 3.754 0 0115 18.75a3.754 3.754 0 013.75 3.75A3.754 3.754 0 0115 26.25zm7.5-7.5A3.754 3.754 0 0118.75 15a3.754 3.754 0 013.75-3.75A3.754 3.754 0 0126.25 15a3.754 3.754 0 01-3.75 3.75z" fill="#fff"/></svg><svg fill="none" viewBox="0 0 20 20" id="info" xmlns="http://www.w3.org/2000/svg"><path d="M9 15.001h2v-6H9v6zm0-8h2v-2H9v2zM16 0H4a4 4 0 00-4 4v12a4 4 0 004 4h12a4 4 0 004-4V4a4 4 0 00-4-4zm2 16a2.003 2.003 0 01-2 2.001H4c-1.103 0-2-.898-2-2.001V4c0-1.103.897-2 2-2h12c1.103 0 2 .897 2 2v12z" fill="#9AA4BF"/></svg><svg fill="none" viewBox="0 0 30 30" id="movie-ic" xmlns="http://www.w3.org/2000/svg"><g clip-path="url(#mclip0)" fill="#fff"><path d="M26.367 10.256L30 13.889v-3.633h-3.633zM20.775 10.256h-4.739l6.012 6.012h-5.592l-6.012-6.012H5.409l6.012 6.012H5.828L.636 11.076a1.308 1.308 0 00-.097.492v16.326c0 .91.738 1.647 1.648 1.647h26.165c.91 0 1.648-.738 1.648-1.648V16.268h-3.213l-6.012-6.012zM25.044.459l-4.983.722-5.088 6.812 4.983-.722L25.044.459zM14.526 1.983l-4.69.68-5.088 6.811 4.69-.68 5.088-6.811zM29.656 4.54l-.443-3.056L25.49 6.47l3.056-.443a1.312 1.312 0 001.11-1.486zM4.302 3.464l-3.178.46a1.312 1.312 0 00-1.11 1.487l.404 2.788.056.39 1.315-1.76 2.513-3.365z"/></g><defs><clipPath id="mclip0"><path fill="#fff" d="M0 0h30v30H0z"/></clipPath></defs></svg><svg fill="none" viewBox="0 0 26 30" id="news" xmlns="http://www.w3.org/2000/svg"><path fill-rule="evenodd" clip-rule="evenodd" d="M8.389 21.585h8.079c.609 0 1.114-.51 1.114-1.125s-.505-1.11-1.114-1.11h-8.08c-.608 0-1.113.495-1.113 1.11 0 .615.505 1.125 1.114 1.125zm5.02-9.735h-5.02c-.61 0-1.114.51-1.114 1.125s.505 1.11 1.114 1.11h5.02c.608 0 1.113-.495 1.113-1.11 0-.615-.505-1.125-1.114-1.125zm10.598-1.312c.35-.004.73-.008 1.075-.008.371 0 .668.3.668.675v12.06c0 3.72-2.985 6.735-6.668 6.735H7.26C3.399 30 .25 26.835.25 22.935V6.765C.25 3.045 3.25 0 6.948 0h7.93c.387 0 .684.315.684.69v4.83c0 2.745 2.243 4.995 4.96 5.01.635 0 1.195.005 1.684.009.382.003.72.006 1.02.006.21 0 .485-.003.781-.007zm.41-2.189c-1.221.005-2.66 0-3.695-.01-1.643 0-2.996-1.367-2.996-3.026V1.359c0-.646.777-.967 1.22-.501a24956.693 24956.693 0 015.98 6.28c.434.455.116 1.21-.51 1.211z" fill="#fff"/></svg><svg fill="none" viewBox="0 0 20 20" id="paper-airplane" xmlns="http://www.w3.org/2000/svg"><path d="M19.993.94a.958.958 0 00-.052-.265c-.011-.031-.021-.062-.035-.093a.985.985 0 00-.195-.294.979.979 0 00-.294-.195c-.031-.014-.062-.024-.093-.035a.99.99 0 00-.263-.052C19.034.005 19.009 0 18.98 0a.99.99 0 00-.308.052L.67 6.353A1 1 0 00.594 8.21l7.75 3.446 3.444 7.75c.16.363.52.594.914.594.014 0 .027 0 .04-.002a.997.997 0 00.904-.668l6.302-18.003c.035-.101.05-.206.052-.309 0-.027-.006-.051-.007-.078zm-4.796 2.448L8.88 9.706 3.71 7.408l11.487-4.02zm-2.605 12.9l-2.298-5.169 6.317-6.316-4.02 11.485z" fill="#fff"/></svg><svg fill="none" viewBox="0 0 36 36" id="planet" xmlns="http://www.w3.org/2000/svg"><path d="M35.425 7.944c-1.288-2.232-4.461-3.092-8.934-2.423a.847.847 0 00.251 1.676c3.683-.55 6.312.03 7.215 1.594 1.72 2.98-2.846 9.871-12.388 15.38-4.362 2.518-8.855 4.181-12.652 4.683-3.49.46-5.991-.139-6.86-1.645-.903-1.563-.092-4.13 2.224-7.042a.847.847 0 00-1.326-1.055C.14 22.65-.7 25.826.589 28.057 1.59 29.79 3.744 30.7 6.76 30.7c.742 0 1.536-.056 2.378-.167 4.011-.53 8.727-2.268 13.277-4.895 9.768-5.64 15.481-13.411 13.009-17.694z" fill="#fff"/><path d="M18.007 2.755C9.601 2.755 2.762 9.595 2.762 18c0 4.964 2.386 9.38 6.07 12.166.408-.025.833-.066 1.274-.124 3.796-.501 8.29-2.164 12.652-4.683 4.784-2.762 8.317-5.872 10.435-8.662-.664-7.798-7.22-13.942-15.186-13.942z" fill="#fff"/><path d="M23.605 26.826c-4.25 2.454-8.643 4.132-12.473 4.774a15.142 15.142 0 006.875 1.645c7.965 0 14.518-6.14 15.185-13.935-2.35 2.607-5.637 5.236-9.587 7.516z" fill="#fff"/></svg><svg fill="none" viewBox="0 0 28 30" id="posts" xmlns="http://www.w3.org/2000/svg"><path fill-rule="evenodd" clip-rule="evenodd" d="M7.715 0h12.572C24.92 0 27.5 2.67 27.5 7.245V22.74c0 4.65-2.58 7.26-7.213 7.26H7.715C3.155 30 .5 27.39.5 22.74V7.245C.5 2.67 3.155 0 7.715 0zm.405 6.99v-.015h4.484c.646 0 1.171.525 1.171 1.169 0 .661-.525 1.186-1.171 1.186H8.12a1.17 1.17 0 010-2.34zm0 9.12h11.76a1.172 1.172 0 000-2.341H8.12a1.172 1.172 0 000 2.341zm0 6.855h11.76a1.174 1.174 0 001.05-1.17c0-.615-.451-1.125-1.05-1.185H8.12a1.192 1.192 0 00-1.125 1.815c.24.375.675.6 1.125.54z" fill="#fff"/></svg><svg fill="currentColor" viewBox="0 0 20 20" id="search" xmlns="http://www.w3.org/2000/svg"><path d="M8 2c3.309 0 6 2.691 6 6s-2.691 6-6 6-6-2.691-6-6 2.691-6 6-6zm0-2a8 8 0 100 16A8 8 0 008 0z"/><path d="M19.171 15.168l-3.134-3.134a9.11 9.11 0 01-1.113 1.714l2.833 2.834a.834.834 0 010 1.175.826.826 0 01-.587.243.826.826 0 01-.588-.243l-2.834-2.833a8.98 8.98 0 01-1.714 1.113l3.134 3.134a2.82 2.82 0 002.001.829 2.831 2.831 0 002.002-4.832z"/></svg><svg fill="none" viewBox="0 0 10 2" id="spread" xmlns="http://www.w3.org/2000/svg"><path d="M0 2h2V0H0v2zm4 0h2V0H4v2zm4-2v2h2V0H8z" fill="#fff"/></svg><svg fill="none" viewBox="0 0 12 14" id="triangle-r" xmlns="http://www.w3.org/2000/svg"><path d="M11.182 5.868L1.804.268C.751-.355 0 .147 0 1.383v11.236c0 1.234.751 1.737 1.803 1.112l9.431-5.6c1.057-.621 1.002-1.64-.052-2.263z" fill="#fff"/></svg><svg fill="none" viewBox="0 0 30 30" id="tv-ic" xmlns="http://www.w3.org/2000/svg"><path d="M27.823 7.298H18.55l3.293-5.403A.993.993 0 0020.146.86l-3.924 6.437h-2.444L9.854.861a.994.994 0 00-1.696 1.034l3.293 5.403H2.176C.976 7.298 0 8.275 0 9.475V27.44c0 1.2.976 2.176 2.176 2.176h25.647c1.2 0 2.177-.976 2.177-2.176V9.475c0-1.2-.976-2.177-2.177-2.177zm-6.785 17.53c0 .654-.53 1.184-1.183 1.184H4.715c-.654 0-1.184-.53-1.184-1.183V12.086c0-.654.53-1.183 1.183-1.183h15.141c.653 0 1.183.53 1.183 1.183v12.743zm4.379-.377a2.055 2.055 0 01-2.053-2.053c0-1.133.92-2.053 2.053-2.053 1.132 0 2.053.92 2.053 2.053a2.055 2.055 0 01-2.053 2.053zm0-7.881a2.055 2.055 0 01-2.053-2.053c0-1.132.92-2.053 2.053-2.053 1.132 0 2.053.92 2.053 2.053a2.055 2.055 0 01-2.053 2.053z" fill="#fff"/></svg><svg viewBox="0 0 20 20" id="user" xmlns="http://www.w3.org/2000/svg"><path d="M10 10c3.069 0 5.556-2.238 5.556-5S13.069 0 10 0 4.444 2.238 4.444 5c0 2.761 2.487 5 5.556 5zm0-8c1.838 0 3.333 1.346 3.333 3S11.838 8 10 8 6.667 6.654 6.667 5 8.162 2 10 2zm3.333 10H6.667C2.986 12 0 14.686 0 18v2h2.222v-2c0-2.205 1.994-4 4.445-4h6.666c2.451 0 4.445 1.795 4.445 4v2H20v-2c0-3.314-2.986-6-6.667-6z"/></svg><svg fill="none" viewBox="0 0 30 30" id="video" xmlns="http://www.w3.org/2000/svg"><path fill-rule="evenodd" clip-rule="evenodd" d="M0 15.009C0 6.729 6.733 0 15 0s15 6.73 15 15.009C30 23.27 23.267 30 15 30S0 23.27 0 15.009zm20.502 1.518c.16-.16.362-.405.405-.463.232-.304.348-.68.348-1.055 0-.421-.13-.812-.377-1.13a12.928 12.928 0 00-.478-.506c-1.187-1.275-4.285-3.359-5.907-3.995-.246-.1-.869-.319-1.202-.333-.318 0-.622.072-.912.217a1.877 1.877 0 00-.81.897c-.102.26-.261 1.042-.261 1.057-.16.854-.246 2.243-.246 3.777 0 1.463.087 2.793.217 3.661.004.004.016.066.035.162.06.294.182.905.312 1.155.319.608.942.984 1.608.984h.057c.435-.014 1.347-.39 1.347-.405 1.535-.637 4.56-2.62 5.777-3.936l.087-.087z" fill="#fff"/></svg></svg>