<svg version="1.1" id="Layer_1" xmlns="http://www.w3.org/2000/svg" xmlns:xlink="http://www.w3.org/1999/xlink" x="0" y="0" viewBox="0 0 512.009 512.009" xml:space="preserve"><circle cx="256.004" cy="256.004" r="256.004" fill="#f95428"/><g fill="#e54728"><path d="M121.499 390.501C29.407 298.407 22.15 153.608 99.723 53.204A258.273 258.273 0 0074.98 74.981c-99.974 99.974-99.974 262.065 0 362.038s262.065 99.974 362.038 0a258.428 258.428 0 0021.777-24.743c-100.403 77.574-245.202 70.317-337.296-21.775z"/><path d="M219.484 328.985a9.468 9.468 0 01-7.367-3.502c-3.306-4.065-2.692-10.043 1.374-13.349 12.078-9.824 27.416-15.235 43.187-15.235 15.038 0 29.816 4.977 41.614 14.013a9.491 9.491 0 011.764 13.303c-3.187 4.161-9.142 4.949-13.303 1.764-8.504-6.514-19.185-10.101-30.074-10.101-11.422 0-22.507 3.899-31.213 10.979a9.443 9.443 0 01-5.982 2.128z"/></g><path d="M177.781 228.807c0-4.059-.701-7.957-1.974-11.586 3.792.39 7.754.611 11.906.611 10.99 0 23.242-1.495 36.755-5.169 5.056-1.375 8.04-6.589 6.666-11.647-1.376-5.058-6.598-8.039-11.647-6.666-67.339 18.318-96.497-24.523-97.722-26.381-2.848-4.375-8.697-5.631-13.089-2.802-4.407 2.836-5.678 8.708-2.842 13.115.316.493 6.677 10.214 19.755 19.873-10.741 6.011-18.022 17.495-18.022 30.653 0 19.358 15.749 35.107 35.107 35.107s35.107-15.749 35.107-35.108zm82.701 28.246c-46.994 0-88.83 29.238-104.106 72.754-1.735 4.944.867 10.359 5.811 12.096a9.487 9.487 0 0012.097-5.811c12.61-35.925 47.251-60.062 86.199-60.062 38.94 0 73.576 24.137 86.186 60.062a9.491 9.491 0 008.953 6.349 9.473 9.473 0 003.143-.538c4.944-1.736 7.545-7.151 5.811-12.096-15.276-43.516-57.109-72.754-104.094-72.754zm142.871-91.839c-4.375-2.85-10.245-1.608-13.116 2.753-1.207 1.833-30.365 44.704-97.722 26.384a9.49 9.49 0 00-4.981 18.313c13.516 3.675 25.764 5.169 36.755 5.169 4.151 0 8.113-.221 11.905-.611a34.937 34.937 0 00-1.974 11.586c0 19.358 15.749 35.107 35.107 35.107s35.107-15.749 35.107-35.107c0-13.159-7.281-24.643-18.022-30.653 13.078-9.659 19.439-19.38 19.755-19.873 2.826-4.391 1.561-10.219-2.814-13.068z" fill="#4d4d4d"/></svg>