<svg version="1.1" id="Layer_1" xmlns="http://www.w3.org/2000/svg" xmlns:xlink="http://www.w3.org/1999/xlink" x="0" y="0" viewBox="0 0 512.009 512.009" xml:space="preserve"><circle cx="256.004" cy="256.004" r="256.004" fill="#f7b239"/><path d="M121.499 390.501C29.407 298.407 22.15 153.608 99.723 53.204A258.273 258.273 0 0074.98 74.981c-99.974 99.974-99.974 262.065 0 362.038s262.065 99.974 362.038 0a258.428 258.428 0 0021.777-24.743c-100.403 77.574-245.202 70.317-337.296-21.775z" fill="#e09b2d"/><path d="M123.163 274.382h258.092c0 14.486-2.391 28.415-6.794 41.421H129.957c-4.403-13.005-6.794-26.935-6.794-41.421z" fill="#fff"/><path d="M129.956 315.803H374.46c-8.679 25.632-25.189 47.633-46.684 63.182-9.033-15.22-25.632-25.417-44.622-25.417a51.593 51.593 0 00-30.946 10.248c-8.641-6.44-19.357-10.248-30.958-10.248-18.977 0-35.589 10.197-44.609 25.417-21.495-15.549-38.006-37.55-46.685-63.182z" fill="#a81004"/><path d="M283.153 353.568c18.99 0 35.589 10.197 44.622 25.417-21.242 15.384-47.355 24.443-75.568 24.443s-54.326-9.059-75.568-24.443c9.021-15.22 25.632-25.417 44.609-25.417 11.601 0 22.317 3.808 30.958 10.248a51.602 51.602 0 0130.947-10.248z" fill="#f95428"/><path d="M142.674 238.04c19.358 0 35.107-15.749 35.107-35.107s-15.749-35.107-35.107-35.107-35.107 15.749-35.107 35.107 15.749 35.107 35.107 35.107zm226.653-70.212c-19.358 0-35.107 15.749-35.107 35.107s15.749 35.107 35.107 35.107 35.107-15.749 35.107-35.107-15.75-35.107-35.107-35.107z" fill="#4d4d4d"/></svg>