<svg version="1.1" id="Layer_1" xmlns="http://www.w3.org/2000/svg" xmlns:xlink="http://www.w3.org/1999/xlink" x="0" y="0" viewBox="0 0 512.009 512.009" xml:space="preserve"><circle cx="256.004" cy="256.004" r="256.004" fill="#9ad14b"/><g fill="#90bc42"><path d="M121.499 390.501C29.407 298.407 22.15 153.608 99.723 53.204A258.273 258.273 0 0074.98 74.981c-99.974 99.974-99.974 262.065 0 362.038s262.065 99.974 362.038 0a258.428 258.428 0 0021.777-24.743c-100.403 77.574-245.202 70.317-337.296-21.775z"/><path d="M287.304 398.326a9.48 9.48 0 01-3.214-.563 83.107 83.107 0 00-56.182 0c-4.93 1.775-10.367-.783-12.142-5.713s.783-10.367 5.713-12.142c22.26-8.015 46.779-8.015 69.038 0 4.93 1.775 7.488 7.211 5.713 12.142-1.39 3.867-5.036 6.276-8.926 6.276z"/></g><path d="M371.325 311.665a9.49 9.49 0 000-18.978c-28.157 0-51.592 20.552-56.124 47.441H196.8c-4.532-26.888-27.966-47.441-56.124-47.441a9.49 9.49 0 000 18.978c20.927 0 37.952 17.025 37.952 37.952s-17.025 37.952-37.952 37.952a9.49 9.49 0 000 18.978c28.157 0 51.592-20.552 56.124-47.441h118.401c4.532 26.888 27.966 47.441 56.124 47.441a9.49 9.49 0 000-18.978c-20.927 0-37.952-17.025-37.952-37.952s17.025-37.952 37.952-37.952zm-193.544-74.911c0-19.358-15.749-35.107-35.107-35.107s-35.107 15.749-35.107 35.107 15.749 35.107 35.107 35.107 35.107-15.749 35.107-35.107zm191.546-35.107c-19.358 0-35.107 15.749-35.107 35.107s15.749 35.107 35.107 35.107 35.107-15.749 35.107-35.107-15.75-35.107-35.107-35.107zm-254.59-20.913a52.066 52.066 0 0012.736 1.592c13.402 0 26.315-5.266 36.125-15.076 12.902-12.902 17.942-31.168 13.484-48.862-1.28-5.082-6.438-8.164-11.519-6.882a9.487 9.487 0 00-6.882 11.519c2.811 11.155-.367 22.67-8.502 30.805-8.134 8.135-19.649 11.311-30.805 8.502-5.083-1.284-10.239 1.8-11.519 6.882-1.281 5.083 1.8 10.24 6.882 11.52zm269.79 1.592a52.06 52.06 0 0012.736-1.592 9.487 9.487 0 006.882-11.519 9.486 9.486 0 00-11.519-6.882c-11.155 2.81-22.67-.367-30.805-8.502-8.135-8.134-11.312-19.649-8.502-30.805 1.28-5.082-1.8-10.239-6.882-11.519-5.081-1.283-10.239 1.8-11.519 6.882-4.458 17.693.582 35.958 13.484 48.862 9.811 9.809 22.722 15.076 36.125 15.075z" fill="#4d4d4d"/></svg>