<svg width="164" height="172" viewBox="0 0 164 172" fill="none" xmlns="http://www.w3.org/2000/svg"><path opacity=".11" d="M82.959 171.606c43.624 0 78.989-7.227 78.989-16.142 0-8.914-35.365-16.141-78.99-16.141-43.624 0-78.989 7.227-78.989 16.141 0 8.915 35.365 16.142 78.99 16.142z" fill="#606060"/><path opacity=".11" d="M136.412 19.979C121.99 7.542 102.805 0 81.9 0 36.65 0 0 35.062 0 78.328c0 20.11 7.939 38.37 20.905 52.262 14.951 16.01 36.782 26.065 60.995 26.065 45.25 0 81.9-35.062 81.9-78.327-.132-23.022-10.585-43.927-27.388-58.35z" fill="#606060"/><path d="M134.559 20.243c12.57 14.025 20.112 32.416 20.112 52.66 0 43.662-35.327 78.989-78.99 78.989a78.86 78.86 0 01-52.659-20.111c14.422 16.142 35.46 26.33 58.878 26.33 43.662 0 78.989-35.327 78.989-78.99 0-23.418-10.188-44.456-26.33-58.878z" fill="#E9AE4B"/><path d="M154.671 72.903a78.855 78.855 0 00-20.112-52.66C120.535 7.674 102.143.133 81.9.133 38.238.132 2.91 35.458 2.91 79.121a78.86 78.86 0 0020.112 52.659c14.025 12.569 32.416 20.111 52.66 20.111 43.662 0 78.989-35.327 78.989-78.99z" fill="#F9BD67"/><path d="M33.342 67.743l22.625 22.625m-22.625 0l22.625-22.625m51.866 0l22.625 22.625m-22.625 0l22.625-22.625" stroke="#000" stroke-width="4.894" stroke-miterlimit="10" stroke-linecap="round" stroke-linejoin="round"/><path d="M90.5 107.833s-10.055-1.456-11.908 3.969v16.936s2.117 7.541 11.908 7.541v-28.446zm0 0s10.056-1.456 11.908 3.969v16.936s-2.117 7.541-11.908 7.541v-28.446z" fill="#D15760"/><path d="M66.552 112.067c24.08-4.366 35.856-1.72 35.856-1.72l-35.856 1.72z" fill="#fff"/><path d="M66.552 112.067c24.08-4.366 35.856-1.72 35.856-1.72" stroke="#000" stroke-width="4.894" stroke-miterlimit="10" stroke-linecap="round" stroke-linejoin="round"/></svg>