<svg width="38" height="30" viewBox="0 0 38 30" fill="none" xmlns="http://www.w3.org/2000/svg"><g clip-path="url(#clip0)"><path d="M5.625 13.125a3.753 3.753 0 003.75-3.75 3.753 3.753 0 00-3.75-3.75 3.753 3.753 0 00-3.75 3.75 3.753 3.753 0 003.75 3.75zm26.25 0a3.753 3.753 0 003.75-3.75 3.753 3.753 0 00-3.75-3.75 3.753 3.753 0 00-3.75 3.75 3.753 3.753 0 003.75 3.75zM33.75 15H30a3.739 3.739 0 00-2.643 1.09 8.571 8.571 0 014.4 6.41h3.868a1.873 1.873 0 001.875-1.875V18.75A3.753 3.753 0 0033.75 15zm-15 0a6.56 6.56 0 006.563-6.563 6.56 6.56 0 00-6.563-6.562 6.56 6.56 0 00-6.563 6.563A6.56 6.56 0 0018.75 15zm4.5 1.875h-.486a9.23 9.23 0 01-4.014.938c-1.441 0-2.79-.352-4.014-.938h-.486a6.752 6.752 0 00-6.75 6.75v1.688a2.813 2.813 0 002.813 2.812h16.874A2.813 2.813 0 0030 25.312v-1.687a6.752 6.752 0 00-6.75-6.75zm-13.107-.785A3.74 3.74 0 007.5 15H3.75A3.753 3.753 0 000 18.75v1.875C0 21.662.838 22.5 1.875 22.5h3.861a8.593 8.593 0 014.407-6.41z" fill="#fff"/></g><defs><clipPath id="clip0"><path fill="#fff" d="M0 0h37.5v30H0z"/></clipPath></defs></svg>